<svg width="275" height="75" viewBox="0 0 275 75" fill="none" xmlns="http://www.w3.org/2000/svg">
<path d="M43.7695 41.5117V60.25C43.1367 61.1875 42.1289 62.2422 40.7461 63.4141C39.3633 64.5625 37.4531 65.5703 35.0156 66.4375C32.6016 67.2812 29.4844 67.7031 25.6641 67.7031C22.5469 67.7031 19.6758 67.1641 17.0508 66.0859C14.4492 64.9844 12.1875 63.3906 10.2656 61.3047C8.36719 59.1953 6.89062 56.6406 5.83594 53.6406C4.80469 50.6172 4.28906 47.1953 4.28906 43.375V39.4023C4.28906 35.582 4.73438 32.1719 5.625 29.1719C6.53906 26.1719 7.875 23.6289 9.63281 21.543C11.3906 19.4336 13.5469 17.8398 16.1016 16.7617C18.6562 15.6602 21.5859 15.1094 24.8906 15.1094C28.8047 15.1094 32.0742 15.7891 34.6992 17.1484C37.3477 18.4844 39.4102 20.3359 40.8867 22.7031C42.3867 25.0703 43.3477 27.7656 43.7695 30.7891H36.9844C36.6797 28.9375 36.0703 27.25 35.1562 25.7266C34.2656 24.2031 32.9883 22.9844 31.3242 22.0703C29.6602 21.1328 27.5156 20.6641 24.8906 20.6641C22.5234 20.6641 20.4727 21.0977 18.7383 21.9648C17.0039 22.832 15.5742 24.0742 14.4492 25.6914C13.3242 27.3086 12.4805 29.2656 11.918 31.5625C11.3789 33.8594 11.1094 36.4492 11.1094 39.332V43.375C11.1094 46.3281 11.4492 48.9648 12.1289 51.2852C12.832 53.6055 13.8281 55.5859 15.1172 57.2266C16.4062 58.8438 17.9414 60.0742 19.7227 60.918C21.5273 61.7617 23.5195 62.1836 25.6992 62.1836C28.1133 62.1836 30.0703 61.9844 31.5703 61.5859C33.0703 61.1641 34.2422 60.6719 35.0859 60.1094C35.9297 59.5234 36.5742 58.9727 37.0195 58.457V46.9961H25.1719V41.5117H43.7695Z" fill="#20A8F4"/>
<path d="M89.3125 40.42V43.295C89.3125 46.7116 88.8854 49.7741 88.0312 52.4825C87.1771 55.1908 85.9479 57.4929 84.3438 59.3887C82.7396 61.2846 80.8125 62.7325 78.5625 63.7325C76.3333 64.7325 73.8333 65.2325 71.0625 65.2325C68.375 65.2325 65.9062 64.7325 63.6562 63.7325C61.4271 62.7325 59.4896 61.2846 57.8438 59.3887C56.2188 57.4929 54.9583 55.1908 54.0625 52.4825C53.1667 49.7741 52.7188 46.7116 52.7188 43.295V40.42C52.7188 37.0033 53.1562 33.9512 54.0312 31.2637C54.9271 28.5554 56.1875 26.2533 57.8125 24.3575C59.4375 22.4408 61.3646 20.9825 63.5938 19.9825C65.8438 18.9825 68.3125 18.4825 71 18.4825C73.7708 18.4825 76.2708 18.9825 78.5 19.9825C80.75 20.9825 82.6771 22.4408 84.2812 24.3575C85.9062 26.2533 87.1458 28.5554 88 31.2637C88.875 33.9512 89.3125 37.0033 89.3125 40.42ZM83.3438 43.295V40.3575C83.3438 37.6491 83.0625 35.2533 82.5 33.17C81.9583 31.0866 81.1562 29.3366 80.0938 27.92C79.0312 26.5033 77.7292 25.4304 76.1875 24.7012C74.6667 23.9721 72.9375 23.6075 71 23.6075C69.125 23.6075 67.4271 23.9721 65.9062 24.7012C64.4062 25.4304 63.1146 26.5033 62.0312 27.92C60.9688 29.3366 60.1458 31.0866 59.5625 33.17C58.9792 35.2533 58.6875 37.6491 58.6875 40.3575V43.295C58.6875 46.0241 58.9792 48.4408 59.5625 50.545C60.1458 52.6283 60.9792 54.3887 62.0625 55.8262C63.1667 57.2429 64.4688 58.3158 65.9688 59.045C67.4896 59.7741 69.1875 60.1387 71.0625 60.1387C73.0208 60.1387 74.7604 59.7741 76.2812 59.045C77.8021 58.3158 79.0833 57.2429 80.125 55.8262C81.1875 54.3887 81.9896 52.6283 82.5312 50.545C83.0729 48.4408 83.3438 46.0241 83.3438 43.295Z" fill="#FD0101"/>
<path d="M138.312 40.42V43.295C138.312 46.7116 137.885 49.7741 137.031 52.4825C136.177 55.1908 134.948 57.4929 133.344 59.3887C131.74 61.2846 129.812 62.7325 127.562 63.7325C125.333 64.7325 122.833 65.2325 120.062 65.2325C117.375 65.2325 114.906 64.7325 112.656 63.7325C110.427 62.7325 108.49 61.2846 106.844 59.3887C105.219 57.4929 103.958 55.1908 103.062 52.4825C102.167 49.7741 101.719 46.7116 101.719 43.295V40.42C101.719 37.0033 102.156 33.9512 103.031 31.2637C103.927 28.5554 105.188 26.2533 106.812 24.3575C108.438 22.4408 110.365 20.9825 112.594 19.9825C114.844 18.9825 117.312 18.4825 120 18.4825C122.771 18.4825 125.271 18.9825 127.5 19.9825C129.75 20.9825 131.677 22.4408 133.281 24.3575C134.906 26.2533 136.146 28.5554 137 31.2637C137.875 33.9512 138.312 37.0033 138.312 40.42ZM132.344 43.295V40.3575C132.344 37.6491 132.062 35.2533 131.5 33.17C130.958 31.0866 130.156 29.3366 129.094 27.92C128.031 26.5033 126.729 25.4304 125.188 24.7012C123.667 23.9721 121.938 23.6075 120 23.6075C118.125 23.6075 116.427 23.9721 114.906 24.7012C113.406 25.4304 112.115 26.5033 111.031 27.92C109.969 29.3366 109.146 31.0866 108.562 33.17C107.979 35.2533 107.688 37.6491 107.688 40.3575V43.295C107.688 46.0241 107.979 48.4408 108.562 50.545C109.146 52.6283 109.979 54.3887 111.062 55.8262C112.167 57.2429 113.469 58.3158 114.969 59.045C116.49 59.7741 118.188 60.1387 120.062 60.1387C122.021 60.1387 123.76 59.7741 125.281 59.045C126.802 58.3158 128.083 57.2429 129.125 55.8262C130.188 54.3887 130.99 52.6283 131.531 50.545C132.073 48.4408 132.344 46.0241 132.344 43.295Z" fill="#FAFF06"/>
<path d="M182.906 41.9512V58.6075C182.344 59.4408 181.448 60.3783 180.219 61.42C178.99 62.4408 177.292 63.3366 175.125 64.1075C172.979 64.8575 170.208 65.2325 166.812 65.2325C164.042 65.2325 161.49 64.7533 159.156 63.795C156.844 62.8158 154.833 61.3991 153.125 59.545C151.438 57.67 150.125 55.3991 149.188 52.7325C148.271 50.045 147.812 47.0033 147.812 43.6075V40.0762C147.812 36.6804 148.208 33.6491 149 30.9825C149.812 28.3158 151 26.0554 152.562 24.2012C154.125 22.3262 156.042 20.9096 158.312 19.9512C160.583 18.9721 163.188 18.4825 166.125 18.4825C169.604 18.4825 172.51 19.0866 174.844 20.295C177.198 21.4825 179.031 23.1283 180.344 25.2325C181.677 27.3366 182.531 29.7325 182.906 32.42H176.875C176.604 30.7741 176.062 29.2741 175.25 27.92C174.458 26.5658 173.323 25.4825 171.844 24.67C170.365 23.8366 168.458 23.42 166.125 23.42C164.021 23.42 162.198 23.8054 160.656 24.5762C159.115 25.3471 157.844 26.4512 156.844 27.8887C155.844 29.3262 155.094 31.0658 154.594 33.1075C154.115 35.1491 153.875 37.4512 153.875 40.0137V43.6075C153.875 46.2325 154.177 48.5762 154.781 50.6387C155.406 52.7012 156.292 54.4616 157.438 55.92C158.583 57.3575 159.948 58.4512 161.531 59.2012C163.135 59.9512 164.906 60.3262 166.844 60.3262C168.99 60.3262 170.729 60.1491 172.062 59.795C173.396 59.42 174.438 58.9825 175.188 58.4825C175.938 57.9616 176.51 57.4721 176.906 57.0137V46.8262H166.375V41.9512H182.906Z" fill="#20A8F4"/>
<path d="M222.875 59.7012V64.6075H200.125V59.7012H222.875ZM201.312 19.1075V64.6075H195.281V19.1075H201.312Z" fill="#04A728"/>
<path d="M270.188 59.7012V64.6075H246.094V59.7012H270.188ZM247.312 19.1075V64.6075H241.281V19.1075H247.312ZM267 38.67V43.5762H246.094V38.67H267ZM269.875 19.1075V24.045H246.094V19.1075H269.875Z" fill="#FD0101"/>
</svg>
