<?xml version="1.0" encoding="UTF-8"?>
<svg version="1.1" viewBox="0 0 1000 346.24" xmlns="http://www.w3.org/2000/svg">
 <g transform="translate(-38.125 -320.84)">
  <path d="m702.99 665.41c-12.647-2.6307-28.06-10.123-34.906-16.969-9.0641-9.0641-12.967-18.18-12.997-30.352-0.0712-29.655 25.077-49.744 71.277-56.936 8.196-1.276 15.368-2.5981 15.938-2.9379 0.56979-0.33979-0.66427-3.5102-2.7423-7.0452-3.1517-5.3614-3.7783-8.0193-3.7783-16.026v-9.5982l-11.804-0.80836c-9.1864-0.62912-13.808-1.7463-20.843-5.0382-29.416-13.765-39.791-49.598-23.224-80.209 7.492-13.844 25.363-26.417 43.188-30.384 10.735-2.3894 85.699-4.2973 88.778-2.2595 1.6992 1.1245 1.0025 2.4267-4.0562 7.5812-5.722 5.8303-6.5662 6.2234-13.364 6.2234-4.2422 0-7.2559 0.60973-7.2559 1.468 0 0.80739 2.4014 4.3553 5.3364 7.8842 11.066 13.305 15.262 28.089 12.491 44.004-2.3216 13.332-7.064 20.739-22.248 34.75-21.125 19.493-21.051 23.905 0.68685 41.333 16.656 13.354 24.656 21.802 29.342 30.988 3.4529 6.7681 3.8487 8.9475 3.8594 21.253 0.011 12.643-0.33603 14.446-4.4516 23.136-8.4534 17.849-25.69 30.985-49.754 37.915-13.422 3.8656-45.394 4.9552-59.473 2.0267zm58.844-16.262c14.273-3.8032 23.813-10.598 28.728-20.46 9.342-18.747 0.84521-35.735-27.356-54.695l-8.227-5.5312-10.969 0.91275c-30.108 2.5052-48.204 10.962-55.439 25.908-3.375 6.9718-3.8247 20.537-0.91197 27.508 2.6093 6.245 11.011 15.305 17.981 19.389 13.174 7.7203 40.607 11.122 56.196 6.9676zm-4.4339-137.64c2.8404-1.1277 7.5503-4.7611 10.467-8.0742 8.7188-9.905 10.422-22.2 5.6558-40.834-6.9514-27.18-22.826-43.805-41.962-43.947-11.815-0.0878-20.222 5.1925-25.879 16.253-3.6485 7.134-4.0772 9.2736-3.9751 19.836 0.1823 18.852 6.3355 35.832 17.293 47.719 11.295 12.254 23.237 15.067 38.401 9.0471zm-613.28 57.703c-56.618-11.18-93.044-45.09-103.6-96.45-3.441-16.71-3.136-42.5 0.67-56.9 9.9675-37.723 36.963-68.598 73.451-84.009 18.175-7.6762 30.308-10.076 54.847-10.848 25.833-0.81248 44.019 1.443 63.074 7.8225 13.929 4.6636 33.22 14.518 35.496 18.132 1.2864 2.0427-0.65407 4.5638-13.065 16.975-8.4409 8.4409-15.219 14.178-16.104 13.631-0.8452-0.52236-1.5281-4.5758-1.5281-9.0704v-8.1261l-7.8842-6.2325c-19.143-15.133-36.758-20.432-65.118-19.59-15.256 0.45305-19.783 1.1155-28.14 4.1175-29.965 10.763-50.058 34.317-58.137 68.152-2.3803 9.9683-2.7095 14.751-2.1326 30.984 0.95655 26.918 6.3303 44.924 19.468 65.234 16.473 25.465 39.533 42.249 67.902 49.423 10.177 2.5736 14.105 2.8352 32.859 2.189 14.162-0.48797 24.517-1.5797 30.899-3.2574l9.5982-2.5235v-60.332l-20.225-0.37945c-22.795-0.42766-23.384-0.77826-15.025-8.9405l5.1997-5.0774h38.678c21.273 0 38.678 0.50159 38.678 1.1146 0 0.61305-1.9062 2.9269-4.2359 5.1419-7.8665 7.479-8.1027 8.7004-8.1256 42.009-0.011 16.817-0.4935 31.32-1.071 32.229-1.2933 2.0348-22.836 7.5661-44.842 11.514-12.914 2.3164-23.092 3.0382-47.305 3.3545-16.968 0.22165-32.394 0.0982-34.279-0.27452zm216.92-3.169c-14.444-3.9005-25.747-10.367-35.978-20.581-15.615-15.59-23.259-34.303-23.259-56.94 0-13.964 2.3503-24.717 7.7226-35.331 14.755-29.152 44.052-46.254 79.236-46.254 23.628 0 42.265 7.3421 57.623 22.7 35.519 35.519 29.291 96.619-12.693 124.53-14.222 9.4546-27.775 13.533-46.876 14.106-12.498 0.37475-17.844-0.0876-25.776-2.2297zm50.637-14.125c9.9192-5.1349 17.578-14.079 21.41-25.004 3.5986-10.259 3.1401-40.053-0.84278-54.773-7.1216-26.32-20.785-45.463-36.749-51.489-16.836-6.3544-36.617-1.2903-49.073 12.563-9.3273 10.374-12.349 21.457-11.302 41.45 1.3934 26.606 10.294 51.678 23.558 66.36 10.312 11.414 18.511 15.112 33.845 15.264 9.2952 0.0923 11.504-0.41186 19.154-4.3721zm134.88 14.797c-34.353-7.5238-59.459-37.01-61.907-72.709-2.2043-32.142 15.748-63.121 44.767-77.253 15.8-7.694 25.265-9.9087 42.518-9.948 24.778-0.0565 44.242 8.2256 60.32 25.667 36.018 39.073 22.994 104.47-25.406 127.57-17.298 8.254-41.069 10.886-60.292 6.6762zm43.625-12.504c8.4757-2.888 19.158-12.685 23.481-21.535 12.415-25.415 3.0906-77.272-17.936-99.752-10.162-10.864-17.83-14.291-32.03-14.314-9.736-0.016-12.916 0.57219-19.315 3.573-9.7555 4.5749-17.107 11.937-21.624 21.656-3.0407 6.5427-3.6308 9.96-4.046 23.428-1.2337 40.016 17.238 78.361 42.009 87.208 6.961 2.4862 21.778 2.3528 29.461-0.26529zm369.24 12.338c-35.602-8.6144-59.727-41.787-59.74-82.141-0.011-35.313 20.201-63.897 52.368-74.058 18.26-5.7684 42.123-4.2908 57.514 3.5613 7.719 3.938 18.014 14.551 22.278 22.967 6.6394 13.102 9.7508 10.842-45.478 33.043-26.961 10.838-49.823 20.437-50.805 21.331-1.4557 1.3247-1.1475 3.3207 1.668 10.801 8.9815 23.862 28.208 41.534 50.352 46.283 10.554 2.2635 27.486 0.76358 39.058-3.4601 11.396-4.1596 11.489-4.1724 11.489-1.5825 0 2.5764-13.75 13.751-22.17 18.018-14.185 7.188-38.981 9.4858-56.534 5.2387zm6.557-100.99c35.211-14.235 36.635-15.264 33.872-24.487-0.90759-3.0293-3.8857-7.9822-6.6179-11.007-14.072-15.576-35.021-15.804-50.559-0.55231-9.1967 9.0274-12.871 18.614-12.871 33.584 0 11.604 0.75515 15.143 3.2318 15.145 0.86198 7.2e-4 15.687-5.7068 32.944-12.683zm-138.37 100.36c-0.48944-0.79192 1.9422-4.4677 5.4038-8.1683l6.2936-6.7284v-208.54h-8.8317c-4.8574 0-9.1666-0.54194-9.576-1.2043-0.40937-0.66236 2.3044-4.056 6.0306-7.5414l6.7749-6.3371h25.344c16.859 0 25.655 0.5019 26.271 1.4991 0.50955 0.82448-1.7679 4.2442-5.061 7.5994l-5.9874 6.1003-0.36819 102.6c-0.41476 115.58-1.1246 107.8 9.9664 109.25 12.606 1.6501 14.397 2.1401 14.397 3.938 0 1.03-1.8984 3.4702-4.2187 5.4226l-4.2187 3.5498h-30.665c-19.94 0-30.976-0.50361-31.555-1.4399z" fill="#fab71c"/>
  <path d="m702.99 665.41c-12.647-2.6307-28.06-10.123-34.906-16.969-9.0641-9.0641-12.967-18.18-12.997-30.352-0.0712-29.655 25.077-49.744 71.277-56.936 8.196-1.276 15.368-2.5981 15.938-2.9379 0.56979-0.33979-0.66427-3.5102-2.7423-7.0452-3.1517-5.3614-3.7783-8.0193-3.7783-16.026v-9.5982l-11.804-0.80836c-9.1864-0.62912-13.808-1.7463-20.843-5.0382-29.416-13.765-39.791-49.598-23.224-80.209 7.492-13.844 25.363-26.417 43.188-30.384 10.735-2.3894 85.699-4.2973 88.778-2.2595 1.6992 1.1245 1.0025 2.4267-4.0562 7.5812-5.722 5.8303-6.5662 6.2234-13.364 6.2234-4.2422 0-7.2559 0.60973-7.2559 1.468 0 0.80739 2.4014 4.3553 5.3364 7.8842 11.066 13.305 15.262 28.089 12.491 44.004-2.3216 13.332-7.064 20.739-22.248 34.75-21.125 19.493-21.051 23.905 0.68685 41.333 16.656 13.354 24.656 21.802 29.342 30.988 3.4529 6.7681 3.8487 8.9475 3.8594 21.253 0.011 12.643-0.33603 14.446-4.4516 23.136-8.4534 17.849-25.69 30.985-49.754 37.915-13.422 3.8656-45.394 4.9552-59.473 2.0267zm58.844-16.262c14.273-3.8032 23.813-10.598 28.728-20.46 9.342-18.747 0.84521-35.735-27.356-54.695l-8.227-5.5312-10.969 0.91275c-30.108 2.5052-48.204 10.962-55.439 25.908-3.375 6.9718-3.8247 20.537-0.91197 27.508 2.6093 6.245 11.011 15.305 17.981 19.389 13.174 7.7203 40.607 11.122 56.196 6.9676zm-4.4339-137.64c2.8404-1.1277 7.5503-4.7611 10.467-8.0742 8.7188-9.905 10.422-22.2 5.6558-40.834-6.9514-27.18-22.826-43.805-41.962-43.947-11.815-0.0878-20.222 5.1925-25.879 16.253-3.6485 7.134-4.0772 9.2736-3.9751 19.836 0.1823 18.852 6.3355 35.832 17.293 47.719 11.295 12.254 23.237 15.067 38.401 9.0471zm-613.28 57.703c-56.618-11.18-93.044-45.09-103.6-96.45-3.441-16.71-3.136-42.5 0.67-56.9 9.9675-37.723 36.963-68.598 73.451-84.009 18.175-7.6762 30.308-10.076 54.847-10.848 25.833-0.81248 44.019 1.443 63.074 7.8225 13.929 4.6636 33.22 14.518 35.496 18.132 1.2864 2.0427-0.65407 4.5638-13.065 16.975-8.4409 8.4409-15.219 14.178-16.104 13.631-0.8452-0.52236-1.5281-4.5758-1.5281-9.0704v-8.1261l-7.8842-6.2325c-19.143-15.133-36.758-20.432-65.118-19.59-15.256 0.45305-19.783 1.1155-28.14 4.1175-29.965 10.763-50.058 34.317-58.137 68.152-2.3803 9.9683-2.7095 14.751-2.1326 30.984 0.95655 26.918 6.3303 44.924 19.468 65.234 16.473 25.465 39.533 42.249 67.902 49.423 10.177 2.5736 14.105 2.8352 32.859 2.189 14.162-0.48797 24.517-1.5797 30.899-3.2574l9.5982-2.5235v-60.332l-20.225-0.37945c-22.795-0.42766-23.384-0.77826-15.025-8.9405l5.1997-5.0774h38.678c21.273 0 38.678 0.50159 38.678 1.1146 0 0.61305-1.9062 2.9269-4.2359 5.1419-7.8665 7.479-8.1027 8.7004-8.1256 42.009-0.011 16.817-0.4935 31.32-1.071 32.229-1.2933 2.0348-22.836 7.5661-44.842 11.514-12.914 2.3164-23.092 3.0382-47.305 3.3545-16.968 0.22165-32.394 0.0982-34.279-0.27452zm219.39-2.6073c-35.736-7.6674-61.703-40.527-61.703-78.083 0-22.075 7.2504-39.393 23.31-55.675 16.882-17.117 38.387-25.831 63.883-25.886 13.042-0.028 29.144 3.7211 39.4 9.1737 10.654 5.6642 27.027 22.593 32.215 33.309 6.8965 14.244 8.9093 24.464 8.0981 41.118-0.85897 17.635-4.1758 27.88-13.576 41.935-8.4434 12.624-16.6 19.743-30.61 26.716-18.324 9.1196-40.466 11.802-61.017 7.3932zm47.591-14.401c15.893-7.7504 23.49-21.051 24.737-43.31 0.90302-16.114-1.4707-32.062-7.1285-47.892-7.5264-21.058-17.304-33.296-31.966-40.008-6.3536-2.9088-8.8535-3.2874-18.573-2.8127-18.345 0.89588-31.639 9.5808-39.133 25.565-3.3955 7.2427-3.634 9.0214-3.6128 26.951 0.0185 15.67 0.60072 21.337 3.1699 30.851 12.198 45.172 41.612 65.722 72.507 50.656zm549.84 14.513c-33.977-7.4314-58.413-38.178-60.789-76.491-2.4586-39.636 21.054-72.662 57.92-81.353 19.244-4.5372 42.051-0.86933 57.268 9.2097 10.631 7.0417 23.124 27.463 19.202 31.386-0.7188 0.71876-22.881 10.007-49.25 20.641-26.368 10.634-48.805 20.165-49.858 21.181-1.6365 1.5778-1.4563 3.0749 1.2365 10.275 8.4275 22.535 26.333 39.989 47.154 45.964 11.562 3.3181 29.801 2.259 43.265-2.5123 5.6169-1.9905 10.413-3.4182 10.659-3.1727 2.4486 2.4486-13.393 15.57-25.125 20.81-13.512 6.0357-34.955 7.7211-51.682 4.0625zm5.131-100.87c16.552-6.7976 31.206-13.366 32.565-14.595 7.7745-7.0358-3.9808-25.66-19.901-31.53-16.886-6.2258-39.208 5.2101-46.094 23.615-2.1192 5.6641-2.835 10.796-2.835 20.323 0 7.0104 0.41135 13.158 0.91412 13.66 1.9035 1.9035 6.069 0.55154 35.35-11.474zm-138.46 100.07c-0.48944-0.79192 1.9422-4.4677 5.4038-8.1683l6.2936-6.7284v-208.54h-8.8317c-4.8574 0-9.1666-0.54194-9.576-1.2043-0.40937-0.66236 2.3044-4.056 6.0306-7.5414l6.7749-6.3371h25.344c16.859 0 25.655 0.5019 26.271 1.4991 0.50955 0.82448-1.7679 4.2442-5.061 7.5994l-5.9874 6.1003-0.36819 102.6c-0.41476 115.58-1.1246 107.8 9.9664 109.25 12.606 1.6501 14.397 2.1401 14.397 3.938 0 1.03-1.8984 3.4702-4.2187 5.4226l-4.2187 3.5498h-30.665c-19.94 0-30.976-0.50361-31.555-1.4399z" fill="#176bea"/>
  <path d="m363.51 566.61c-35.736-7.6674-61.703-40.527-61.703-78.083 0-22.075 7.2504-39.393 23.31-55.675 16.882-17.117 38.387-25.831 63.883-25.886 13.042-0.028 29.144 3.7211 39.4 9.1737 10.654 5.6642 27.027 22.593 32.215 33.309 6.8965 14.244 8.9093 24.464 8.0981 41.118-0.85897 17.635-4.1758 27.88-13.576 41.935-8.4434 12.624-16.6 19.743-30.61 26.716-18.324 9.1196-40.466 11.802-61.017 7.3932zm47.591-14.401c15.893-7.7504 23.49-21.051 24.737-43.31 0.90302-16.114-1.4707-32.062-7.1285-47.892-7.5264-21.058-17.304-33.296-31.966-40.008-6.3536-2.9088-8.8535-3.2874-18.573-2.8127-18.345 0.89588-31.639 9.5808-39.133 25.565-3.3955 7.2427-3.634 9.0214-3.6128 26.951 0.0185 15.67 0.60072 21.337 3.1699 30.851 12.198 45.172 41.612 65.722 72.507 50.656zm549.84 14.513c-33.977-7.4314-58.413-38.178-60.789-76.491-2.4586-39.636 21.054-72.662 57.92-81.353 19.244-4.5372 42.051-0.86933 57.268 9.2097 10.631 7.0417 23.124 27.463 19.202 31.386-0.7188 0.71876-22.881 10.007-49.25 20.641-26.368 10.634-48.805 20.165-49.858 21.181-1.6365 1.5778-1.4563 3.0749 1.2365 10.275 8.4275 22.535 26.333 39.989 47.154 45.964 11.562 3.3181 29.801 2.259 43.265-2.5123 5.6169-1.9905 10.413-3.4182 10.659-3.1727 2.4486 2.4486-13.393 15.57-25.125 20.81-13.512 6.0357-34.955 7.7211-51.682 4.0625zm5.131-100.87c16.552-6.7976 31.206-13.366 32.565-14.595 7.7745-7.0358-3.9808-25.66-19.901-31.53-16.886-6.2258-39.208 5.2101-46.094 23.615-2.1192 5.6641-2.835 10.796-2.835 20.323 0 7.0104 0.41135 13.158 0.91412 13.66 1.9035 1.9035 6.069 0.55154 35.35-11.474zm-138.46 100.07c-0.48944-0.79192 1.9422-4.4677 5.4038-8.1683l6.2936-6.7284v-208.54h-8.8317c-4.8574 0-9.1666-0.54194-9.576-1.2043-0.40937-0.66236 2.3044-4.056 6.0306-7.5414l6.7749-6.3371h25.344c16.859 0 25.655 0.5019 26.271 1.4991 0.50955 0.82448-1.7679 4.2442-5.061 7.5994l-5.9874 6.1003-0.36819 102.6c-0.41476 115.58-1.1246 107.8 9.9664 109.25 12.606 1.6501 14.397 2.1401 14.397 3.938 0 1.03-1.8984 3.4702-4.2187 5.4226l-4.2187 3.5498h-30.665c-19.94 0-30.976-0.50361-31.555-1.4399z" fill="#d64b37"/>
  <path d="m827.61 565.93c-0.48944-0.79192 1.9422-4.4677 5.4038-8.1683l6.2936-6.7284v-208.54h-8.8317c-4.8574 0-9.1666-0.54194-9.576-1.2043-0.40937-0.66236 2.3044-4.056 6.0306-7.5414l6.7749-6.3371h25.344c16.859 0 25.655 0.5019 26.271 1.4991 0.50955 0.82448-1.7679 4.2442-5.061 7.5994l-5.9874 6.1003-0.36819 102.6c-0.41476 115.58-1.1246 107.8 9.9664 109.25 12.606 1.6501 14.397 2.1401 14.397 3.938 0 1.03-1.8984 3.4702-4.2187 5.4226l-4.2187 3.5498h-30.665c-19.94 0-30.976-0.50361-31.555-1.4399z" fill="#069b59"/>
 </g>
</svg>
