<svg width="608" height="430" viewBox="0 0 608 430" fill="none" xmlns="http://www.w3.org/2000/svg">
<path d="M87.5019 72.2951C93.1765 71.4477 96.959 66.3638 95.9502 60.9398C94.9414 55.5158 89.5234 51.8057 83.8487 52.6531C78.174 53.5005 74.3916 58.5845 75.4004 64.0085C76.4092 69.4325 81.8272 73.1425 87.5019 72.2951Z" fill="#FF6347"/>
<path d="M83.2229 51.2029C85.0011 50.9376 86.8294 51.11 88.5291 51.7034C90.2288 52.2967 91.7416 53.2906 92.9197 54.588C94.0978 55.8853 94.9008 57.4417 95.2503 59.1049C95.5998 60.7681 95.4838 62.4813 94.9135 64.0769C95.6097 62.8975 96.0337 61.5915 96.1584 60.242C96.2832 58.8926 96.1059 57.5294 95.638 56.2393C95.1701 54.9491 94.4218 53.7603 93.4407 52.7487C92.4596 51.7371 91.2674 50.9248 89.9399 50.3635C88.6123 49.8023 87.1787 49.5045 85.7303 49.489C84.2819 49.4736 82.8506 49.7408 81.5274 50.2738C80.2043 50.8067 79.0184 51.5936 78.0453 52.5844C77.0723 53.5752 76.3334 54.7481 75.8757 56.0283C76.6256 54.7528 77.6757 53.6565 78.9478 52.821C80.2198 51.9856 81.6812 51.4325 83.2229 51.2029V51.2029Z" fill="#FF6347"/>
<path d="M61.9159 88.2896C75.7666 78.9184 79.2406 59.7924 69.6752 45.5703C60.1098 31.3482 41.1273 27.4158 27.2765 36.7869C13.4258 46.1581 9.95186 65.2841 19.5173 79.5062C29.0826 93.7282 48.0652 97.6607 61.9159 88.2896Z" fill="#FF6347"/>
<path d="M14.1453 59.8451C15.1215 51.9478 19.1032 44.8001 25.2503 39.9105C31.3973 35.021 39.2287 32.7721 47.0915 33.6386C46.7523 33.5778 46.4141 33.514 46.0706 33.4643C38.0623 32.3143 29.9891 34.4162 23.6247 39.308C17.2604 44.1999 13.1256 51.4816 12.1288 59.5534C11.1319 67.6251 13.3545 75.8266 18.3083 82.3559C23.2621 88.8852 30.5418 93.2082 38.5481 94.3752C38.8915 94.4249 39.2333 94.4594 39.5754 94.4972C31.7784 93.0981 24.7677 88.702 20.023 82.2367C15.2783 75.7714 13.1708 67.7427 14.1453 59.8451V59.8451Z" fill="#FF6347"/>
<path d="M118.196 114.073L127.801 140.059L142.996 191.824C142.996 191.824 148.484 212.78 141.666 214.604C134.847 216.429 131.871 191.873 131.871 191.873L115.814 148.301L107.611 121.299L118.196 114.073Z" fill="#FBBEBE"/>
<path d="M59.3157 83.5725C67.8382 77.8063 70.0515 66.1505 64.2593 57.5385C58.4671 48.9265 46.8627 46.6195 38.3402 52.3856C29.8177 58.1518 27.6044 69.8076 33.3966 78.4196C39.1888 87.0316 50.7932 89.3386 59.3157 83.5725Z" fill="#FBBEBE"/>
<path d="M40.8745 79.7442L48.0772 96.0176L67.3442 88.4979L57.9947 74.5968L40.8745 79.7442Z" fill="#FBBEBE"/>
<path d="M153.997 334.18L160.337 347.779L168.466 343.173L165.939 329.679L153.997 334.18Z" fill="#FBBEBE"/>
<path d="M219.387 295.584L224.078 307.979L234.137 306.477L231.915 294.532L219.387 295.584Z" fill="#FBBEBE"/>
<path d="M119.381 142.155L81.4981 177.636L100.326 211.194L126.144 260.709L152.574 340.345L172.587 329.761L145.464 217.101L214.835 302.161L234.124 289.11L173.032 195.494C173.032 195.494 139.07 143.609 126.506 147.184L119.381 142.155Z" fill="black"/>
<path d="M172.404 338.789L160.108 344.154L171.088 370.216C171.088 370.216 183.674 407.013 192.783 396.909C201.892 386.806 182.661 362.386 182.661 362.386L172.404 338.789Z" fill="black"/>
<path d="M222.427 306.66L235.137 302.306L245.59 328.573C245.59 328.573 262.463 363.704 248.715 362.483C234.968 361.262 231.661 330.653 231.661 330.653L222.427 306.66Z" fill="black"/>
<path d="M37.4912 147.046C37.4912 147.046 51.8517 179.526 59.0675 184.69C66.2833 189.855 97.3252 204.016 97.3252 204.016L94.8602 190.613L63.8896 172.386L49.8149 141.722L37.4912 147.046Z" fill="#FBBEBE"/>
<path d="M75.2806 93.3425L67.0502 83.8872C67.0502 83.8872 49.124 92.0094 43.3113 88.931L44.3661 100.236L31.8926 113.684C31.8926 113.684 23.534 119.339 27.5207 126.658C31.5074 133.976 36.909 150.353 36.909 150.353L51.2603 146.653L84.3363 176.357L118.748 144.061L104.319 126.78L103.007 120.656L108.64 124.858L119.004 113.839C119.004 113.839 102.98 88.6237 87.986 92.759L75.2806 93.3425Z" fill="black"/>
<path d="M22.8813 60.5996L36.5192 80.8767L40.2603 78.3456L40.7145 68.722L44.3832 75.5561L60.9183 64.3687L55.5918 58.6563L61.9385 63.6785L64.5739 61.8955L50.936 41.6183L22.8813 60.5996Z" fill="#FF6347"/>
<path d="M535.971 289.326L534.375 288.032L550.006 257.646L535.971 289.326Z" fill="black"/>
<path d="M534.802 315.727H531.195L532.998 232.422L534.802 315.727Z" fill="black"/>
<path d="M531.708 255.431C548.973 255.431 562.969 240.197 562.969 221.405C562.969 202.613 548.973 187.379 531.708 187.379C514.443 187.379 500.447 202.613 500.447 221.405C500.447 240.197 514.443 255.431 531.708 255.431Z" fill="#FF6347"/>
<path d="M389.715 316.962C389.715 324.594 388.443 331.602 385.899 337.986C383.355 344.37 379.779 349.866 375.171 354.474C370.563 359.082 365.019 362.658 358.539 365.202C352.059 367.746 344.859 369.018 336.939 369.018H297.267V264.906H336.939C344.859 264.906 352.059 266.202 358.539 268.794C365.019 271.338 370.563 274.914 375.171 279.522C379.779 284.082 383.355 289.554 385.899 295.938C388.443 302.322 389.715 309.33 389.715 316.962ZM369.843 316.962C369.843 311.25 369.075 306.138 367.539 301.626C366.051 297.066 363.867 293.226 360.987 290.106C358.155 286.938 354.699 284.514 350.619 282.834C346.587 281.154 342.027 280.314 336.939 280.314H316.707V353.61H336.939C342.027 353.61 346.587 352.77 350.619 351.09C354.699 349.41 358.155 347.01 360.987 343.89C363.867 340.722 366.051 336.882 367.539 332.37C369.075 327.81 369.843 322.674 369.843 316.962ZM426.254 280.314V309.186H462.686V324.09H426.254V353.538H472.478V369.018H406.814V264.906H472.478V280.314H426.254ZM578.85 264.906L536.802 369.018H519.306L477.258 264.906H492.81C494.49 264.906 495.858 265.314 496.914 266.13C497.97 266.946 498.762 268.002 499.29 269.298L523.842 332.802C524.658 334.866 525.426 337.146 526.146 339.642C526.914 342.09 527.634 344.658 528.306 347.346C528.882 344.658 529.506 342.09 530.178 339.642C530.85 337.146 531.594 334.866 532.41 332.802L556.818 269.298C557.202 268.194 557.946 267.186 559.05 266.274C560.202 265.362 561.594 264.906 563.226 264.906H578.85Z" fill="black"/>
<path d="M242.378 199.884C240.122 200.988 237.65 201.852 234.962 202.476C237.65 203.1 240.122 203.964 242.378 205.068L268.514 218.532C269.618 219.06 270.41 219.732 270.89 220.548C271.37 221.364 271.61 222.252 271.61 223.212V235.884L214.514 206.076V198.876L271.61 169.14V181.812C271.61 182.772 271.37 183.66 270.89 184.476C270.41 185.244 269.618 185.916 268.514 186.492L242.378 199.884ZM308.341 251.22C307.525 253.428 306.205 255.084 304.381 256.188C302.605 257.292 300.781 257.844 298.909 257.844H291.349L333.397 150.276C334.165 148.26 335.341 146.724 336.925 145.668C338.509 144.564 340.357 144.012 342.469 144.012H350.101L308.341 251.22ZM426.9 198.876V206.076L369.804 235.884V223.212C369.804 222.252 370.044 221.364 370.524 220.548C371.004 219.732 371.796 219.06 372.9 218.532L399.036 205.068C401.292 203.964 403.764 203.1 406.452 202.476C403.764 201.852 401.292 200.988 399.036 199.884L372.9 186.492C371.796 185.916 371.004 185.244 370.524 184.476C370.044 183.66 369.804 182.772 369.804 181.812V169.14L426.9 198.876Z" fill="#FF6347"/>
<path d="M250.429 37.888L218.101 142H200.605L177.853 70.864C177.229 69.136 176.653 67.024 176.125 64.528C175.837 65.728 175.549 66.856 175.261 67.912C174.973 68.968 174.661 69.952 174.325 70.864L151.357 142H133.789L101.533 37.888H117.733C119.413 37.888 120.805 38.296 121.909 39.112C123.061 39.88 123.829 40.936 124.213 42.28L141.925 104.56C142.309 106.096 142.669 107.776 143.005 109.6C143.389 111.376 143.773 113.248 144.157 115.216C144.541 113.2 144.949 111.304 145.381 109.528C145.861 107.752 146.365 106.096 146.893 104.56L167.341 42.28C167.725 41.176 168.469 40.168 169.573 39.256C170.725 38.344 172.117 37.888 173.749 37.888H179.437C181.117 37.888 182.485 38.296 183.541 39.112C184.597 39.928 185.389 40.984 185.917 42.28L206.293 104.56C207.301 107.536 208.213 110.968 209.029 114.856C209.653 111.064 210.349 107.632 211.117 104.56L228.829 42.28C229.117 41.08 229.837 40.048 230.989 39.184C232.189 38.32 233.605 37.888 235.237 37.888H250.429ZM282.653 53.296V82.168H319.085V97.072H282.653V126.52H328.877V142H263.213V37.888H328.877V53.296H282.653ZM384.993 126.88C388.593 126.88 391.617 126.448 394.065 125.584C396.513 124.72 398.457 123.568 399.897 122.128C401.385 120.688 402.441 119.008 403.065 117.088C403.737 115.168 404.073 113.128 404.073 110.968C404.073 108.712 403.713 106.696 402.993 104.92C402.273 103.096 401.145 101.56 399.609 100.312C398.073 99.016 396.081 98.032 393.633 97.36C391.233 96.688 388.329 96.352 384.921 96.352H365.409V126.88H384.993ZM365.409 52.864V82.96H380.817C387.441 82.96 392.433 81.76 395.793 79.36C399.201 76.96 400.905 73.144 400.905 67.912C400.905 62.488 399.369 58.624 396.297 56.32C393.225 54.016 388.425 52.864 381.897 52.864H365.409ZM381.897 37.888C388.713 37.888 394.545 38.536 399.393 39.832C404.241 41.128 408.201 42.976 411.273 45.376C414.393 47.776 416.673 50.68 418.113 54.088C419.553 57.496 420.273 61.336 420.273 65.608C420.273 68.056 419.913 70.408 419.193 72.664C418.473 74.872 417.345 76.96 415.809 78.928C414.321 80.848 412.401 82.6 410.049 84.184C407.745 85.768 404.985 87.112 401.769 88.216C416.073 91.432 423.225 99.16 423.225 111.4C423.225 115.816 422.385 119.896 420.705 123.64C419.025 127.384 416.577 130.624 413.361 133.36C410.145 136.048 406.185 138.16 401.481 139.696C396.777 141.232 391.401 142 385.353 142H346.041V37.888H381.897Z" fill="#838181"/>
</svg>
